<svg id="Capa_1" data-name="Capa 1" xmlns="http://www.w3.org/2000/svg" viewBox="0 0 2000 411.29"><defs><style>.cls-1{fill:#c8e8ed;}.cls-2{fill:#036095;}.cls-3{fill:#e8edf9;}</style></defs><title>fondo</title><path class="cls-1" d="M0,155V40s137.06,56.67,247.7,93.33S611,216.67,611,216.67Z"/><path class="cls-1" d="M2000,82.6V26.67S1848.33,0,1755,0s-190,3.33-233.33,23.33c-67,30.92-23.34,26.67-23.34,26.67Z"/><path class="cls-2" d="M2000,109.27V53.33s-195-36.66-288.33-36.66-206.67,0-340,36.66c-71.15,19.57-70,23.34-70,23.34Z"/><path class="cls-3" d="M0,81.67S391.67,203.33,596.67,198.33s705-148.33,930-160S2000,81.67,2000,81.67V411.29L0,409.12Z"/></svg>