<svg xmlns="http://www.w3.org/2000/svg" viewBox="0 0 200 200"><defs><style>.cls-1{fill:#fff;}</style></defs><title>icono</title><g id="Capa_2" data-name="Capa 2"><path class="cls-1" d="M180.53,200H19.47A19.49,19.49,0,0,1,0,180.53V19.47A19.49,19.49,0,0,1,19.47,0H180.53A19.49,19.49,0,0,1,200,19.47V180.53A19.49,19.49,0,0,1,180.53,200ZM19.47,5.4A14.08,14.08,0,0,0,5.41,19.47V180.53A14.08,14.08,0,0,0,19.47,194.6H180.53a14.08,14.08,0,0,0,14.06-14.07V19.47A14.08,14.08,0,0,0,180.53,5.4Z"/><path class="cls-1" d="M154.31,144.91a14.93,14.93,0,0,1-3.63,6,12.72,12.72,0,0,1-18.33-.71q-12.78-13.85-25.53-27.73l-.76-.82a24.31,24.31,0,0,1-3.16,1.46c-.35.1-1-.33-1.35-.69-1-1-.69-1.94,1.34-4.2l-2.8-3.06c-.23.21-.44.38-.62.56-3.76,3.76-7.5,7.52-11.28,11.25a1.59,1.59,0,0,0-.48,1.69A21.23,21.23,0,0,1,65.59,154.4a27.07,27.07,0,0,1-5.09-1c-1.93-.52-2.39-2.32-1-3.75,2.61-2.64,5.26-5.25,7.92-7.84a3,3,0,0,0,.85-1.93A5.19,5.19,0,0,0,66,134.53a.69.69,0,0,1-.22-.23A5.37,5.37,0,0,0,59.94,132a2.79,2.79,0,0,0-1.44.64c-2.63,2.58-5.2,5.21-7.8,7.82-1.69,1.69-3.41,1.24-4.1-1.07a21.27,21.27,0,0,1,25.11-26.9,1.43,1.43,0,0,0,1.11-.21C77.9,107.2,83,102.14,88.05,97c-.26-.28-.48-.54-.72-.78Q75,83.93,62.74,71.59a2.25,2.25,0,0,0-1.84-.79c-1.31.07-2.62,0-3.93,0a2.2,2.2,0,0,1-2-1.13Q50.53,62.33,46.11,55a2.1,2.1,0,0,1,.18-2.74c2-2.06,4-4.07,6.08-6.09a5.88,5.88,0,0,1,.85-.6h1.27c0,.06.06.13.11.16,5,3,10,6,15,9A2.57,2.57,0,0,1,71,57.07c0,1.21,0,2.41,0,3.61a2.34,2.34,0,0,0,.79,2Q84.08,74.9,96.31,87.2a5.22,5.22,0,0,1,.58.83,4.53,4.53,0,0,0,.48-.31c5-5,10-10,14.92-15a1.68,1.68,0,0,0,.3-1.3,20.44,20.44,0,0,1-.35-7.27c1.15-7.71,5.21-13.36,12.25-16.66,2.2-1,4.72-1.36,7.09-2h3.83c1.37.31,2.75.55,4.1.93,2.32.65,2.74,2.37,1.05,4.1-2.54,2.6-5.12,5.18-7.64,7.81a3,3,0,0,0-.64,1.45,5.45,5.45,0,0,0,2.34,5.86l.15.15a5,5,0,0,0,5.34,2.28,2.78,2.78,0,0,0,1.85-.79c2.58-2.66,5.2-5.3,7.83-7.91,1.47-1.45,3.23-1,3.84,1,.24.77.45,1.56.68,2.33V71c-.15.46-.32.92-.45,1.39a20.23,20.23,0,0,1-4.41,8.24c-5.61,6.22-12.56,8.49-20.77,6.88a1.39,1.39,0,0,0-1.47.45c-3.74,3.77-7.5,7.51-11.25,11.27-.22.22-.43.46-.7.74l3,2.78c2.53-2,3.38-2.23,4.38-1.21s.77,1.8-1.09,4.21l.83.78c8.78,8.06,17.53,16.16,26.37,24.16,2.46,2.23,4.57,4.61,5.53,7.84Zm-19.16-95a15.41,15.41,0,0,0-6.14.46,16.9,16.9,0,0,0-12,21.17,3.18,3.18,0,0,1-.93,3.51Q95.62,95.46,75.2,116a3.22,3.22,0,0,1-3.52.93,16.92,16.92,0,0,0-20.52,10,15.88,15.88,0,0,0-1.09,8c2.15-2.12,4.23-4.14,6.27-6.19a3.14,3.14,0,0,1,2.45-1c1.66,0,3.32,0,5,0a3,3,0,0,1,2.36,1c1.76,1.79,3.53,3.57,5.33,5.33a3.25,3.25,0,0,1,1,2.55c0,1.56,0,3.12,0,4.68a3.32,3.32,0,0,1-1.08,2.64c-1.76,1.7-3.47,3.44-5.2,5.16-.31.3-.61.62-1.09,1.11a17,17,0,0,0,18.13-21.64,3,3,0,0,1,.77-3.36q20.63-20.58,41.21-41.21a2.93,2.93,0,0,1,3.25-.81,17,17,0,0,0,20.42-9.47,16.05,16.05,0,0,0,1.31-8.49c-2.12,2.09-4.18,4.07-6.19,6.11a3.37,3.37,0,0,1-2.64,1.09c-1.62,0-3.25,0-4.88,0a3,3,0,0,1-2.36-1c-1.73-1.82-3.54-3.57-5.2-5.46a4.19,4.19,0,0,1-.91-2.26c-.14-1.65,0-3.32-.05-5a3.24,3.24,0,0,1,1-2.46c1.78-1.77,3.53-3.57,5.29-5.37C134.57,50.57,134.79,50.31,135.15,49.9ZM109,118.47l.12.18q13.26,14.4,26.53,28.79a8.5,8.5,0,1,0,11.89-12.11q-14-12.89-28.07-25.75c-.3-.28-.62-.54-.85-.74ZM94.15,90.9c-.38-.33-.69-.56-1-.83Q80.59,77.46,68,64.84a3.67,3.67,0,0,1-1.24-3,19.86,19.86,0,0,0,0-3.18,1.72,1.72,0,0,0-.65-1.14c-1.63-1.06-3.32-2-5-3l-7-4.17c-1,1-2,2.07-3,3a1,1,0,0,0-.17,1.44c1.72,2.8,3.39,5.63,5.08,8.45.66,1.09,1.09,2.6,2.06,3.13s2.54.24,3.84.2A3.92,3.92,0,0,1,65,67.85Q77.59,80.51,90.19,93.12a4.37,4.37,0,0,1,.59,1Zm21.14,14.88-2.94-2.68-9.16,9.16,2.7,2.92Z"/><path class="cls-1" d="M87.26,115.41c-2,0-3-1.73-2.23-3.11a5.45,5.45,0,0,1,.87-1.06l25.51-25.51a5.71,5.71,0,0,1,.88-.76,2,2,0,0,1,2.63.2,2.07,2.07,0,0,1,.25,2.7,7.14,7.14,0,0,1-.77.88q-12.75,12.75-25.52,25.5A10.94,10.94,0,0,1,87.26,115.41Z"/><path class="cls-1" d="M142.45,139.78c0,2-1.73,3-3.12,2.21a5.12,5.12,0,0,1-1.05-.87l-18-17.89c-1.44-1.43-1.64-2.67-.61-3.66s2.23-.74,3.59.61q9,9,18,18A10.35,10.35,0,0,1,142.45,139.78Z"/></g></svg>