<svg xmlns="http://www.w3.org/2000/svg" viewBox="0 0 200 200"><defs><style>.cls-1{fill:#036095;}</style></defs><title>icono</title><g id="Capa_2" data-name="Capa 2"><path class="cls-1" d="M180.53,200H19.47A19.49,19.49,0,0,1,0,180.53V19.47A19.49,19.49,0,0,1,19.47,0H180.53A19.49,19.49,0,0,1,200,19.47V180.53A19.49,19.49,0,0,1,180.53,200ZM19.47,5.41A14.07,14.07,0,0,0,5.41,19.47V180.53a14.07,14.07,0,0,0,14.06,14.06H180.53a14.07,14.07,0,0,0,14.06-14.06V19.47A14.07,14.07,0,0,0,180.53,5.41Z"/><path class="cls-1" d="M165.59,98c-1.85,2.16-2.89,2.23-5.19.34l-11.21-9.16-1-.72v1.64q0,31.07,0,62.14c0,.51,0,1,0,1.53a2.47,2.47,0,0,1-2.35,2.43,13.28,13.28,0,0,1-1.41,0H55.52a11.12,11.12,0,0,1-1.53-.06A2.38,2.38,0,0,1,51.82,154a11.47,11.47,0,0,1-.06-1.66V88.44c-.54.4-.87.64-1.19.89-3.8,3.11-7.57,6.26-11.43,9.29a4.1,4.1,0,0,1-2.63.87,2.4,2.4,0,0,1-1.6-3.88,7.91,7.91,0,0,1,1.28-1.24q11.66-9.53,23.32-19A2.58,2.58,0,0,0,60.6,73.1c-.05-6.92,0-13.84,0-20.76,0-3,.83-3.78,3.83-3.78H77.35c2.63,0,3.52.89,3.53,3.54,0,1.71,0,3.42,0,5.12a1.8,1.8,0,0,0,.13.39c.31-.22.62-.4.88-.61l14-11.43c2.9-2.38,5.27-2.38,8.16,0Q134,70,163.86,94.44a15.06,15.06,0,0,1,1.73,2ZM143,151v-1.13q0-32.34,0-64.69a2.21,2.21,0,0,0-1-1.87l-39.17-32c-2.13-1.73-3.61-1.74-5.72,0q-19.59,16-39.18,32a2.48,2.48,0,0,0-1.05,2.14q.06,32.09,0,64.17V151ZM65.93,53.85V70.06c3.24-2.65,6.34-5.18,9.42-7.72a.83.83,0,0,0,.29-.54c0-2.63,0-5.26,0-7.95Z"/></g></svg>