<svg xmlns="http://www.w3.org/2000/svg" viewBox="0 0 200 200"><defs><style>.cls-1{fill:#036095;}</style></defs><title>icono</title><g id="Capa_2" data-name="Capa 2"><path class="cls-1" d="M180.53,200H19.47A19.49,19.49,0,0,1,0,180.53V19.47A19.49,19.49,0,0,1,19.47,0H180.53A19.49,19.49,0,0,1,200,19.47V180.53A19.49,19.49,0,0,1,180.53,200ZM19.47,5.41A14.07,14.07,0,0,0,5.41,19.47V180.53a14.07,14.07,0,0,0,14.06,14.06H180.53a14.07,14.07,0,0,0,14.06-14.06V19.47A14.07,14.07,0,0,0,180.53,5.41Z"/><path class="cls-1" d="M107.27,34.78c2.71.39,5.46.63,8.14,1.18,18.8,3.87,33.12,14.18,42.52,30.84,20.86,37-1,83.81-42.68,91.79A62,62,0,0,1,75.16,153a2.65,2.65,0,0,0-1.7-.22q-14.67,3.9-29.32,7.89a2.41,2.41,0,0,0-.42.22H42.24c-1.8-1.23-2-1.83-1.38-4,2.61-9.31,5.23-18.62,7.79-27.94a3,3,0,0,0-.22-1.94c-11.18-22.49-10-44.27,3.68-65.35a1.43,1.43,0,0,1,.14-.2c1.11-1.57,2.47-2,3.75-1.05s1.33,2.24.34,3.8c-1.31,2.08-2.73,4.11-3.83,6.3-9.2,18.38-8.92,36.69.7,54.84a5,5,0,0,1,.49,4.07c-2.34,8.15-4.6,16.33-6.88,24.5-.07.24-.11.48-.21.9.43-.07.77-.1,1.09-.18,8.47-2.28,16.94-4.55,25.4-6.88a4.33,4.33,0,0,1,3.4.37,57.56,57.56,0,0,0,81.85-33.73c9-28.45-5.78-59.68-33.63-70.49-18.92-7.34-37-5.16-54,6-.24.16-.47.34-.71.49a2.5,2.5,0,0,1-3.58-.59,2.42,2.42,0,0,1,.8-3.44c2.77-1.75,5.52-3.57,8.44-5a59.7,59.7,0,0,1,23-6.31,6.39,6.39,0,0,0,.95-.19Z"/><path class="cls-1" d="M60.86,140.8c.87-.22,1.74-.42,2.59-.65,3.64-1,7.29-1.93,10.92-3a4.07,4.07,0,0,1,3.4.39A50.4,50.4,0,0,0,93.92,144a47.31,47.31,0,0,0,34.64-6.2l.93-.59c1.56-1,3-.78,3.78.48a2.44,2.44,0,0,1-1.1,3.62,81,81,0,0,1-10,5.05c-15.33,5.73-30.25,4.55-44.62-3.26a5.19,5.19,0,0,0-4.36-.5c-4.91,1.45-9.89,2.69-14.83,4.05a2.76,2.76,0,0,1-3-.49c-.92-.91-.78-2-.46-3.09,1.42-5,2.79-10,4.24-15a3.09,3.09,0,0,0-.36-2.75A50.91,50.91,0,0,1,51.55,106C49,89.05,53.32,74.13,64.88,61.49a49.76,49.76,0,0,1,30.7-16.24c18.7-2.53,34.59,3.25,47.29,17.26a50.07,50.07,0,0,1,12.85,29.11,51.84,51.84,0,0,1-8.3,34.47,2.52,2.52,0,0,1-3.58,1,2.45,2.45,0,0,1-.57-3.66,46.86,46.86,0,0,0,7.4-20,46.34,46.34,0,0,0-9-34.58,46.26,46.26,0,0,0-32.93-19,47.66,47.66,0,0,0-52.1,38.21,47.12,47.12,0,0,0,5.65,33.34c3.12,5.42,2.88,3.28,1.2,9.43-.87,3.2-1.78,6.39-2.66,9.59A1.17,1.17,0,0,0,60.86,140.8Z"/><path class="cls-1" d="M91.19,93.37a35.25,35.25,0,0,0,9.37,10.51c2.73,2,5.73,3.64,8.63,5.39a1.79,1.79,0,0,0,2.78-.7,39.38,39.38,0,0,1,2.67-3.53c2.35-2.91,4.9-3.48,8.27-1.84s6.53,3.25,9.83,4.81c2.54,1.2,3.51,3.25,3.56,5.94.18,10.17-7.66,14.21-14.57,14.68-5.56.37-10.72-1.12-15.75-3.24-14.38-6-25-16.25-32.35-29.85a22,22,0,0,1-3-11.89c.3-5,1.66-9.6,5.46-13.18,3.11-2.92,6.81-3.41,10.77-2.6A5,5,0,0,1,90.53,71c1.59,3.69,3.22,7.36,4.8,11.05,1.27,2.94,1.08,5.65-1.26,8C93.08,91.12,92.18,92.24,91.19,93.37Zm28.65,30.32c.61,0,1.23,0,1.84,0,6.15-.43,9.62-3.92,9.69-9.69a1.55,1.55,0,0,0-1-1.64c-3.19-1.52-6.36-3.06-9.49-4.68a1.75,1.75,0,0,0-2.59.61c-1.13,1.56-2.34,3.07-3.55,4.57a4.42,4.42,0,0,1-4.11,1.75,8.79,8.79,0,0,1-3.09-.71,86,86,0,0,1-8.28-4.79,41.54,41.54,0,0,1-12-12.59c-1.61-2.59-1.41-4.69.61-6.94.79-.89,1.52-1.84,2.37-2.66A2.28,2.28,0,0,0,90.83,84c-1.56-3.52-3-7.08-4.64-10.59a1.94,1.94,0,0,0-1.27-.89c-3.28-.52-5.68.88-7.25,3.68a15.1,15.1,0,0,0-1.52,12.33A27.84,27.84,0,0,0,78.4,94c6.6,11.69,15.7,20.74,28.1,26.24C110.75,122.13,115.09,123.71,119.84,123.69Z"/></g></svg>