<svg xmlns="http://www.w3.org/2000/svg" viewBox="0 0 200 200"><defs><style>.cls-1{fill:#fff;}</style></defs><title>icono</title><g id="Capa_2" data-name="Capa 2"><path class="cls-1" d="M180.53,200H19.47A19.49,19.49,0,0,1,0,180.53V19.47A19.49,19.49,0,0,1,19.47,0H180.53A19.49,19.49,0,0,1,200,19.47V180.53A19.49,19.49,0,0,1,180.53,200ZM19.47,5.4A14.08,14.08,0,0,0,5.41,19.47V180.53A14.08,14.08,0,0,0,19.47,194.6H180.53a14.08,14.08,0,0,0,14.06-14.07V19.47A14.08,14.08,0,0,0,180.53,5.4Z"/><path class="cls-1" d="M117.22,58.63c-.46.53-.89,1.1-1.38,1.6q-6.45,6.54-12.92,13.05a2,2,0,0,0-.61,1.51q0,19,0,37.93c0,2.1-.46,2.56-2.57,2.56h-53c-2,0-2.49-.5-2.49-2.48q0-19,0-38a1.94,1.94,0,0,0-.62-1.5q-6.69-6.72-13.34-13.47c-1.29-1.3-1.27-2.16.09-3.37q8.44-7.55,16.91-15.07a6.28,6.28,0,0,1,2-1.16c3.91-1.46,7.83-2.86,11.76-4.28,1.75-.63,2.6-.12,2.88,1.68.41,2.7,1.31,5.17,3.51,7A9.25,9.25,0,0,0,82,39.93a16.52,16.52,0,0,0,.51-2.42c.21-1.59,1.16-2.2,2.73-1.65,3.31,1.18,6.59,2.44,9.93,3.52a15.26,15.26,0,0,1,5.6,3.32c5,4.61,10.2,9.1,15.3,13.65a16.89,16.89,0,0,1,1.14,1.25ZM102.29,68.4l10.54-10.13a3.52,3.52,0,0,0-.29-.32L96.83,43.85a2.72,2.72,0,0,0-.88-.49q-4.71-1.72-9.43-3.42c-.25-.09-.52-.15-.78-.22-1.58,5.77-5.17,9.51-11.09,10.06-7.34.69-11.87-3.16-14-10.09C57.3,40.9,54,42.08,50.71,43.3a4.12,4.12,0,0,0-1.31.77q-7.66,6.81-15.29,13.67c-.18.16-.34.35-.6.63L44.13,68.6c0-2.12,0-4.37,0-6.62a7,7,0,0,1,0-1.12,1.7,1.7,0,0,1,3.39.12c0,.34,0,.68,0,1v49.68H98.85V61.8a7,7,0,0,1,0-1,1.66,1.66,0,0,1,1.79-1.48c1,.05,1.6.78,1.61,2C102.3,63.74,102.29,66.22,102.29,68.4Z"/><path class="cls-1" d="M170.66,155a11.77,11.77,0,0,1-2.76,5.85,10.39,10.39,0,0,1-7.31,3.47l-.77,0c-19,0-38,0-57.08,0a45,45,0,0,1-25.52-8c-.83-.56-1.62-1.17-2.48-1.68a7,7,0,0,1-3.19-4.29v-2.91c.08-.24.17-.48.23-.72a7,7,0,0,1,6.36-5.1c4.88-.36,9.8-.4,14.6-1.54,1.51-.36,3-.78,4.48-1.2,1.09-.3,1.89,0,2.16.83s-.19,1.61-1.32,2A52,52,0,0,1,86.55,144l-.09.32c1.7.52,3.36,1.16,5.08,1.55,4,.88,8,.58,12.06.47a34.07,34.07,0,0,0,17.52-5.4c.71-.45,1.49-.75,2.08,0a2.32,2.32,0,0,1,.34,1.65c-.05.34-.56.67-.93.9a37.21,37.21,0,0,1-19.28,5.84c-4,.09-8.06.32-12.06-.47a27.35,27.35,0,0,1-9.5-3.93,4,4,0,0,0-1.77-.45,9.41,9.41,0,0,0-1.83.1,4.15,4.15,0,0,0-3.64,5.08.92.92,0,0,0,.63.53c6.09,1.15,12.16,2.31,18.4,2.28,8.09,0,16.19,0,24.29,0A10.83,10.83,0,0,0,123.3,151c2-1.12,4.06-2.12,6-3.29a8.1,8.1,0,0,1,5.34-1.32,5.16,5.16,0,0,0,5.35-2.31c.81-1.12,1.89-2,2.81-3.07a6.35,6.35,0,0,1,5.13-2.22c5.23,0,10.45,0,15.68,0h1.11c.58-6.19-.85-11.45-6.09-15.35-.92,1-1.87,1.87-2.76,2.84a2.35,2.35,0,0,1-2,.84c-.61,0-1.22,0-1.83,0a1.46,1.46,0,0,1-1.46-1.39,1.54,1.54,0,0,1,1.36-1.52.27.27,0,0,1,.09,0c1.62.38,2.57-.63,3.5-1.68a16,16,0,0,1,1.24-1.23,2.7,2.7,0,0,1,3.7-.19,17.28,17.28,0,0,1,7.3,14.05c.07,4,0,7.94,0,11.91a3.16,3.16,0,0,0,.47,1.38c.78,1.47,1.6,2.92,2.41,4.38Zm-91.24-1-.08.17.52.37a42.07,42.07,0,0,0,22.06,6.83c5.22.11,10.45,0,15.67,0h42.09a7.67,7.67,0,0,0,7.23-4.29,6.05,6.05,0,0,0,.32-.88H166c-9.32,0-18.64,0-28,0a6.74,6.74,0,0,1-5.19-2.15c-.75-.79-1.61-1.5-2.3-2.34s-1.16-.73-1.94-.26c-1.29.79-2.66,1.44-4,2.19a13.29,13.29,0,0,1-6.76,1.69c-8,0-16.06,0-24.09,0-2.89,0-5.79-.28-8.68-.53C83.16,154.64,81.3,154.27,79.42,154Zm88.24-.7c-.56-1-1-1.83-1.51-2.66a2.45,2.45,0,0,0-2.32-1.29c-1.1,0-2.19,0-3.29,0a1.4,1.4,0,0,1-1.42-1.33,1.34,1.34,0,0,1,1-1.5,3.64,3.64,0,0,1,1-.09c1.22,0,2.43,0,3.64,0v-4.56a3.83,3.83,0,0,0-.51-.07q-8.42,0-16.84,0a2.34,2.34,0,0,0-1.45.41c-1.37,1.27-2.66,2.64-4,4a2.43,2.43,0,0,0,1.18.23c3.64,0,7.29,0,10.93,0a1.45,1.45,0,0,1,1.65,1.39c0,.88-.6,1.48-1.62,1.54H133.81c-.41,0-.83.05-1.52.1.91.9,1.64,1.53,2.27,2.26a4.65,4.65,0,0,0,3.85,1.6c9.32-.05,18.64,0,28,0Z"/><path class="cls-1" d="M107.7,136.8c-.08-1.52-.12-2.87-.21-4.22a2.18,2.18,0,0,1,3.7-1.9c.56.47,1.13.93,1.88,1.54-.14-1.46-.22-2.7-.38-3.93a2.23,2.23,0,0,1,1-2.42,2.16,2.16,0,0,1,2.61.25c.33.25.68.48,1.2.85,0-.73-.09-1.31-.14-1.89s-.12-.9-.12-1.35a2.09,2.09,0,0,1,3-2c1.67.83,3.28,1.79,4.88,2.74a1.41,1.41,0,0,1,.55,2,1.45,1.45,0,0,1-2,.5c-1.08-.56-2.13-1.18-3.33-1.86.1,1.05.16,2,.29,2.87a2.25,2.25,0,0,1-1,2.51,2.17,2.17,0,0,1-2.61-.26c-.33-.25-.68-.48-1.22-.86.13,1.43.21,2.69.38,3.94a2.34,2.34,0,0,1-1,2.59c-.87.53-1.74.37-2.75-.44L110.53,134c.06,1.4.09,2.6.17,3.8a2.26,2.26,0,0,1-1,2.33,2.3,2.3,0,0,1-2.55-.18c-1.06-.65-2.14-1.26-3.23-1.9,0,1.55,0,3,0,4.43,0,1.22-.47,1.88-1.41,1.91s-1.48-.63-1.53-1.83c-.06-1.91-.16-3.81-.19-5.71a2.15,2.15,0,0,1,3.41-2C105.33,135.41,106.46,136.08,107.7,136.8Z"/><path class="cls-1" d="M135.31,126.45l-2.64-4.67c-.71-1.26-1.39-2.54-2.12-3.8-.57-1-1.19-1-1.94-.15-.92,1.08-1.8,2.19-2.72,3.28-.71.83-1.48,1-2.19.41a1.5,1.5,0,0,1,0-2.29c.95-1.18,1.9-2.36,2.89-3.51a3.84,3.84,0,0,1,6.43.58c1.31,2.25,2.58,4.53,3.79,6.84a1.82,1.82,0,0,0,1.9,1.1c2.29-.06,4.58,0,6.87,0,.79,0,1.49.3,1.59,1.1a2.24,2.24,0,0,1-.52,1.51c-.2.26-.76.31-1.16.31-2,0-4,0-6,0a1.68,1.68,0,0,0-1.46.69q-4.23,5.1-8.52,10.15a11.53,11.53,0,0,1-1.18,1.14,1.47,1.47,0,1,1-2-2.13q4.42-5.13,8.84-10.25A3.34,3.34,0,0,0,135.31,126.45Z"/></g></svg>