<svg xmlns="http://www.w3.org/2000/svg" viewBox="0 0 200 200"><defs><style>.cls-1{fill:#fff;}</style></defs><title>icono</title><g id="Capa_2" data-name="Capa 2"><path class="cls-1" d="M180.53,200H19.47A19.49,19.49,0,0,1,0,180.53V19.47A19.49,19.49,0,0,1,19.47,0H180.53A19.49,19.49,0,0,1,200,19.47V180.53A19.49,19.49,0,0,1,180.53,200ZM19.47,5.4A14.08,14.08,0,0,0,5.41,19.47V180.53A14.08,14.08,0,0,0,19.47,194.6H180.53a14.08,14.08,0,0,0,14.06-14.07V19.47A14.08,14.08,0,0,0,180.53,5.4Z"/><path class="cls-1" d="M126.2,35.13a10.12,10.12,0,0,1,5.38,3.09,9.51,9.51,0,0,1,1.91,7.49c-.68,6.68-1.33,13.36-2,20a8.18,8.18,0,0,1-.19,1.12,2.45,2.45,0,0,1-2.78,2,2.36,2.36,0,0,1-2.12-2.56c.15-2.49.41-5,.66-7.44.46-4.62,1-9.23,1.39-13.86.32-3.46-1-4.81-4.47-4.81H76c-3.46,0-4.82,1.56-4.37,5,.08.63.14,1.25.22,2.08H94.57c1.87,0,3,.84,3.06,2.32.12,1.64-1,2.73-2.89,2.74-4.82,0-9.63,0-14.44,0h-8c.35,3.59.69,7.06,1,10.53q1.2,12,2.41,24.06,1.35,13.41,2.69,26.83c.46,4.57.94,9.15,1.36,13.73.26,2.85,1.32,3.9,4.18,3.9h32.05c2.75,0,3.83-1,4.1-3.68q2.15-21.48,4.3-42.95c.19-1.9,1.17-3,2.7-2.91a2.45,2.45,0,0,1,2.36,2.73c-.14,2.36-.4,4.71-.63,7.06q-1.21,12.15-2.44,24.31c-.48,4.66-.9,9.32-1.56,14a9.13,9.13,0,0,1-1.8,3.67,3.51,3.51,0,0,0-.77,2.15c0,6.93,0,13.85,0,20.78,0,3.29-1.19,6-4.26,7.45a9.49,9.49,0,0,1-3.9.84c-9.46.07-18.92.05-28.38,0-4.84,0-8-3.14-8-8-.05-7,0-14.1-.05-21.15a3.44,3.44,0,0,0-.78-2,9.35,9.35,0,0,1-2.1-5.2Q73.38,114,72,99.55q-1.59-15.8-3.19-31.61c-.77-7.68-1.56-15.36-2.3-23a8.63,8.63,0,0,1,6.72-9.53,4.53,4.53,0,0,0,.57-.23ZM82.87,149.64c3,0,5.81,0,8.63,0a3.76,3.76,0,0,0,1.84-.58c4-2.6,8.21-2.89,12.31-.55a9,9,0,0,0,4.87,1.16c1.56,0,3.12,0,4.68,0h2V136.56H82.87Zm0,5.07c0,.46-.06.79-.06,1.11,0,3.29.61,4,3.87,4h22.16c1.86,0,3.72,0,5.57,0a2.59,2.59,0,0,0,2.82-2.62c.07-.78,0-1.57,0-2.45-3.23,0-6.31-.05-9.38,0a5.47,5.47,0,0,1-3.83-1.3,6.3,6.3,0,0,0-7.86-.14,6.34,6.34,0,0,1-4.54,1.44C88.74,154.65,85.84,154.71,82.88,154.71Z"/><path class="cls-1" d="M100,62A17.73,17.73,0,1,1,82.33,79.72,17.79,17.79,0,0,1,100,62Zm.08,5.07A12.67,12.67,0,0,0,100,92.38a12.67,12.67,0,1,0,.12-25.33Z"/><path class="cls-1" d="M100.07,104.54c3,0,6,0,9,0,1.91,0,3,.92,3,2.49s-1.08,2.56-3,2.56q-9.06,0-18.11,0c-1.85,0-3-1-3.05-2.51s1.18-2.54,3.12-2.55C94.08,104.53,97.07,104.54,100.07,104.54Z"/><path class="cls-1" d="M100.11,114.68c1.26,0,2.53,0,3.79,0a2.46,2.46,0,0,1,2.6,2.39,2.43,2.43,0,0,1-2.48,2.63q-4,.12-8,0a2.51,2.51,0,1,1,.14-5C97.49,114.65,98.8,114.68,100.11,114.68Z"/></g></svg>