<svg xmlns="http://www.w3.org/2000/svg" viewBox="0 0 200 200"><defs><style>.cls-1{fill:#036095;}</style></defs><title>icono</title><g id="Capa_2" data-name="Capa 2"><path class="cls-1" d="M180.53,200H19.47A19.49,19.49,0,0,1,0,180.53V19.47A19.49,19.49,0,0,1,19.47,0H180.53A19.49,19.49,0,0,1,200,19.47V180.53A19.49,19.49,0,0,1,180.53,200ZM19.47,5.41A14.07,14.07,0,0,0,5.41,19.47V180.53a14.07,14.07,0,0,0,14.06,14.06H180.53a14.07,14.07,0,0,0,14.06-14.06V19.47A14.07,14.07,0,0,0,180.53,5.41Z"/><path class="cls-1" d="M30.73,132.49c.22-.53.43-1.07.65-1.6A13.71,13.71,0,0,1,41,122.46c.65-.17,1.07-.32,1.25-1.12A23.49,23.49,0,0,1,63,102.88a3,3,0,0,0,.53-.17c-.11-.77-.23-1.55-.33-2.33Q58.56,64.19,88,42.66a50.89,50.89,0,0,1,13.21-6.75c1.85-.65,3-.49,3.81.59s.74,2.29-.33,3.85A52.55,52.55,0,0,0,95.3,72.92a53.18,53.18,0,0,0,69.51,48.28l.65-.19a2.64,2.64,0,0,1,3.25.95,2.5,2.5,0,0,1-.19,3.36c-3.07,3.42-5.91,7.13-9.37,10.1-12.89,11.09-28,15.53-44.85,13.83a52.75,52.75,0,0,1-15.4-4,1.76,1.76,0,0,0-2.15.34,15.78,15.78,0,0,1-10.52,4c-3.3,0-6.59,0-9.89,0-1.91,0-3.06-1.05-3.06-2.68s1.19-2.71,3.06-2.73c3.12,0,6.23,0,9.35,0,6.58,0,11.53-4.95,11.44-11.33a11.18,11.18,0,0,0-11.72-10.93c-2.15,0-2.7-.33-3.54-2.39-3-7.39-10.59-12.09-18.15-11.29a18.13,18.13,0,0,0-16.37,14.91c0,.22-.06.44-.08.67-.31,2.93-.76,3.37-3.76,3.69A8.35,8.35,0,0,0,42.42,144a10.84,10.84,0,0,0,2.42.19c3.07,0,6.14,0,9.21,0a2.45,2.45,0,0,1,2.6,1.58,3.46,3.46,0,0,1-.23,2.62A3.4,3.4,0,0,1,54,149.56c-3.24.13-6.5.08-9.75.05a13.77,13.77,0,0,1-13.23-9.74c-.1-.29-.22-.58-.33-.88Zm127.82-4c-23.3,3-42.85-4-57-22.93S86.43,65.79,95.89,44.21c-.58.32-1.12.6-1.65.9a53.24,53.24,0,0,0-25.35,56.47,2,2,0,0,0,1.78,1.9,22.86,22.86,0,0,1,15.26,12,1.79,1.79,0,0,0,1.61,1.11,16.49,16.49,0,0,1,15,17.33,43.12,43.12,0,0,1-1.27,6.44C121,148.72,144.93,143,158.55,128.5Z"/><path class="cls-1" d="M38.92,167.18a2.7,2.7,0,0,1-2-4.57L148.85,44.78a2.7,2.7,0,0,1,3.92,3.72L40.88,166.34A2.7,2.7,0,0,1,38.92,167.18Z"/></g></svg>