<svg xmlns="http://www.w3.org/2000/svg" viewBox="0 0 200 200"><defs><style>.cls-1{fill:#fff;}</style></defs><title>icono</title><g id="Capa_2" data-name="Capa 2"><path class="cls-1" d="M180.53,200H19.47A19.49,19.49,0,0,1,0,180.53V19.47A19.49,19.49,0,0,1,19.47,0H180.53A19.49,19.49,0,0,1,200,19.47V180.53A19.49,19.49,0,0,1,180.53,200ZM19.47,5.4A14.08,14.08,0,0,0,5.4,19.47V180.53A14.08,14.08,0,0,0,19.47,194.6H180.53a14.08,14.08,0,0,0,14.07-14.07V19.47A14.08,14.08,0,0,0,180.53,5.4Z"/><path class="cls-1" d="M149.24,122.24a23.81,23.81,0,0,1-.32,2.37,6.12,6.12,0,0,1-4.92,5c-11.87,2.2-23.62,5.15-35.7,6.09a114.74,114.74,0,0,1-30.94-2Q68,131.89,58.6,130.14c-5.71-1.07-6.94-2.27-7.87-7.94a20.24,20.24,0,0,1-17.68-19.61c-.09-3.66-.32-7.36,1-10.91q4.11-11.5,16.11-13.74c.22,0,.44-.1.65-.15.13-.89.17-1.72.37-2.52A6.1,6.1,0,0,1,56,70.45c11.78-2.16,23.44-5.09,35.42-6.08a113.25,113.25,0,0,1,31.49,2c6.15,1.21,12.31,2.37,18.48,3.52,5.71,1.06,7,2.3,7.87,7.92a20,20,0,0,1,9.2,3.59A19.76,19.76,0,0,1,167,97.71c.07,3.61.27,7.25-1,10.76-2.77,7.6-8.1,12.15-16.06,13.61ZM144.66,100q0-11.31,0-22.6c0-1.7-.58-2.48-2.14-2.76-10.19-1.84-20.35-3.88-30.59-5.39a90.52,90.52,0,0,0-28.07.5c-8.8,1.46-17.54,3.23-26.3,4.87-1.61.31-2.2,1.06-2.2,2.85q0,22.53,0,45.06c0,1.88.59,2.53,2.48,2.89,6.57,1.25,13.14,2.48,19.7,3.78a105.74,105.74,0,0,0,37,1.25c9.17-1.42,18.27-3.3,27.4-5,2.27-.42,2.69-1,2.69-3.27Zm4.53-17.64v35.2a2.85,2.85,0,0,0,.48,0,4,4,0,0,0,.69-.11,15.47,15.47,0,0,0,11.34-10.31c1.15-3.2.86-6.53.79-9.81a15.07,15.07,0,0,0-4.86-10.91A14.69,14.69,0,0,0,149.19,82.37ZM50.82,117.71V82.45a4.29,4.29,0,0,0-.47,0,4,4,0,0,0-.69.11c-6,1.58-10.07,5.25-11.54,11.27-.69,2.78-.54,5.8-.6,8.71a14.07,14.07,0,0,0,2.11,7.56A15.57,15.57,0,0,0,50.82,117.71Z"/><path class="cls-1" d="M100.15,84.38h32.23a8,8,0,0,1,1.39,0,2.21,2.21,0,0,1,0,4.39,6.48,6.48,0,0,1-1.25,0h-65a6.51,6.51,0,0,1-1.25,0,2.21,2.21,0,0,1,0-4.39,8.16,8.16,0,0,1,1.4,0Z"/><path class="cls-1" d="M100.15,97.78h32.23a7.14,7.14,0,0,1,1.39,0A2.09,2.09,0,0,1,135.7,100a2.11,2.11,0,0,1-1.93,2.2,7.41,7.41,0,0,1-1.25,0h-65a7.43,7.43,0,0,1-1.25,0,2.21,2.21,0,0,1,0-4.39,7.26,7.26,0,0,1,1.4,0Z"/><path class="cls-1" d="M99.87,115.64H67.63a7.16,7.16,0,0,1-1.39,0,2.21,2.21,0,0,1,0-4.39,7.46,7.46,0,0,1,1.25,0h65a7.41,7.41,0,0,1,1.25,0,2.21,2.21,0,0,1,0,4.39,7.14,7.14,0,0,1-1.39,0Z"/></g></svg>