<svg xmlns="http://www.w3.org/2000/svg" viewBox="0 0 200 200"><defs><style>.cls-1{fill:#fff;}</style></defs><title>icono</title><g id="Capa_2" data-name="Capa 2"><path class="cls-1" d="M180.53,200H19.47A19.49,19.49,0,0,1,0,180.53V19.47A19.49,19.49,0,0,1,19.47,0H180.53A19.49,19.49,0,0,1,200,19.47V180.53A19.49,19.49,0,0,1,180.53,200ZM19.47,5.4A14.08,14.08,0,0,0,5.41,19.47V180.53A14.08,14.08,0,0,0,19.47,194.6H180.53a14.08,14.08,0,0,0,14.06-14.07V19.47A14.08,14.08,0,0,0,180.53,5.4Z"/><path class="cls-1" d="M78.05,159.12a5.86,5.86,0,0,1-3.23-3.92c-1.18-3.49-2.42-7-3.77-10.4-.89-2.26-.75-4.18,1.3-5.81-2.16-2.87-4.31-5.67-6.41-8.5-2.38-3.21-4.83-6.39-7-9.71-2.38-3.54-3.48-7.68-4.93-11.65Q48.63,94.58,43.36,80c-1.38-3.8-.56-7.16,2.25-9.51a7.83,7.83,0,0,1,6.11-1.62c-.76-2.07-1.46-4-2.16-6A7.74,7.74,0,0,1,51,54.54,7.53,7.53,0,0,1,56.72,52h1.14c-1-5.75.44-9.07,4.5-10.58a7.54,7.54,0,0,1,6.36.4,8.45,8.45,0,0,1,4,5,7.58,7.58,0,0,1,4.74-2.66c4.1-.47,7.22,1.49,8.68,5.46,2.4,6.53,4.76,13.07,7.14,19.6A2.51,2.51,0,0,0,94,70.26c0-3.79,0-7.58,0-11.37a18.42,18.42,0,0,1,.31-4.47,7.76,7.76,0,0,1,10.65-5.21l.75.29c.79-5.57,3.35-8.43,7.74-8.59a7.69,7.69,0,0,1,6,2.47,8.35,8.35,0,0,1,2.2,5.83,23.65,23.65,0,0,1,4.91-.52c4.2.41,6.91,3.82,6.91,8.39q0,18.36,0,36.71V101l1-1c2.34-2.28,4.57-4.7,7.06-6.81,3.67-3.12,9.49-2.64,12.93.84a9.86,9.86,0,0,1,.83,12.87,18.85,18.85,0,0,1-1.7,1.88q-9.71,9.48-19.45,18.91a2.46,2.46,0,0,0-.84,2c0,2.35,0,4.7,0,7a1.24,1.24,0,0,0,.8,1.32,5.61,5.61,0,0,1,3.26,5.19q.09,4.9,0,9.81a5.87,5.87,0,0,1-4.3,5.77,4.74,4.74,0,0,0-.51.24H89.14c-.86-.67-1.7-1.35-2.57-2a1.06,1.06,0,0,0-.77-.2c-2,.71-3.94,1.46-5.9,2.2Zm31.53-33.7c-1-2.73-1.92-5.3-2.88-7.85a3.32,3.32,0,0,1,.13-2.77c1.78-3.75,3.51-7.52,5.26-11.28,2.39-5.12,4.8-10.23,7.15-15.37a5.77,5.77,0,0,0-3.07-8c-2.88-1.21-6,.11-7.54,3.25-1.32,2.73-2.57,5.5-3.85,8.25a4.08,4.08,0,0,1-2.91,2.56c-2.16.44-3.85-.63-4.73-3Q91.28,75.14,85.43,59.06c-1-2.85-2-5.72-3.14-8.55a3.8,3.8,0,0,0-7.37,1A6.56,6.56,0,0,0,75.38,54c3.07,8.53,6.19,17,9.29,25.56A7.72,7.72,0,0,1,85,80.93,1.79,1.79,0,0,1,83.83,83a1.87,1.87,0,0,1-2.36-.89A6.61,6.61,0,0,1,81,81.08q-3.81-10.44-7.61-20.9c-1.54-4.22-3.06-8.45-4.62-12.66a3.93,3.93,0,0,0-4.13-2.68,3.78,3.78,0,0,0-3.35,3.44,6.81,6.81,0,0,0,.48,2.57q6,16.47,12,32.92A6,6,0,0,1,74.1,85a1.92,1.92,0,0,1-3.53,1.25A6.2,6.2,0,0,1,70,85c-2-5.55-4-11.12-6.07-16.68-1.19-3.28-2.37-6.57-3.61-9.84a3.86,3.86,0,0,0-3.87-2.54A3.65,3.65,0,0,0,53,58.85a6.82,6.82,0,0,0,.4,3.12C57.2,72.45,61,82.91,64.84,93.38c.56,1.54.19,2.72-1,3.12s-2.14-.16-2.73-1.74l-.21-.54-6.66-18.3a7.67,7.67,0,0,0-.45-1.06,3.65,3.65,0,0,0-3.78-2.1,3.3,3.3,0,0,0-3.15,2.62,6.12,6.12,0,0,0,.19,3.23c3.28,9.23,6.66,18.42,10,27.64.31.87.69.93,1.52.75,10.12-2.15,19,1.64,24.45,10.42a62.46,62.46,0,0,1,5.39,12.21c.35,1,.72,2,1.12,3.07Zm19.79,12c0-3,0-5.92,0-8.8a3.73,3.73,0,0,1,1.26-2.95c4.32-4.16,8.62-8.36,12.92-12.54,2.65-2.58,5.33-5.13,7.94-7.74a5.93,5.93,0,1,0-8.3-8.48c-.25.24-.49.49-.73.73-2,2-4,4.06-6,6a3.92,3.92,0,0,1-5.68.25,4.63,4.63,0,0,1-1.23-3.59q0-21.4,0-42.83a9,9,0,0,0-.16-1.94,3.8,3.8,0,0,0-5.78-2.43,4.24,4.24,0,0,0-2,3.92c0,7.2,0,14.4,0,21.59a2.17,2.17,0,0,0,.27,1.2c2.47,3.52,2.37,7.1.56,10.89-3.89,8.19-7.68,16.43-11.49,24.65a2.35,2.35,0,0,0-.25,1.51c.78,2.33,1.63,4.64,2.51,6.94a1.23,1.23,0,0,0,.78.63,6.06,6.06,0,0,1,5.17,4.34c.93,2.61,1.87,5.21,2.84,7.8.13.32.51.76.78.77C124.91,137.43,127.06,137.4,129.37,137.4ZM79,155.13c.25-.07.4-.1.54-.15q18.72-6.81,37.44-13.64a2,2,0,0,0,1.42-3c-.92-2.6-1.88-5.2-2.83-7.79-.81-2.24-1.52-2.57-3.72-1.77l-26.41,9.6-11,4ZM58.89,111.07A30.25,30.25,0,0,0,63,119.9c4.21,5.73,8.54,11.38,12.79,17.08.39.52.74.49,1.27.3,2.7-1,5.41-2,8.12-3a5,5,0,0,0,.62-.34c-.6-1.72-1.16-3.39-1.77-5-1.61-4.33-3.29-8.63-6.29-12.24C73.28,111.35,65.17,108.91,58.89,111.07Zm66.7,38.23c-.41,0-.6-.07-.78-.07-5.77,0-11.54,0-17.31,0a4.33,4.33,0,0,0-1.45.31q-6.93,2.49-13.85,5c-.34.12-.66.28-1,.43l0,.18h33c2.3,0,4.61,0,6.92,0a2,2,0,0,0,2.3-2.17q.07-4.78,0-9.57a2,2,0,0,0-2.14-2.08c-2.81,0-5.61,0-8.42,0a1,1,0,0,0-.75.33,7,7,0,0,1-3.78,3.51c2.33.09,4.62.07,6.92.1,2,0,3.58,1,4,2.7a11.29,11.29,0,0,1,.16,3.53,1.74,1.74,0,0,1-2,1.6,1.79,1.79,0,0,1-1.75-1.8C125.55,150.68,125.59,150,125.59,149.3ZM101,90.4c.26-.51.43-.85.59-1.19,1.13-2.44,2.18-4.92,3.41-7.31a7.11,7.11,0,0,0,.76-3.4c0-7.27,0-14.54,0-21.81a3.91,3.91,0,0,0-3.29-4.11c-2.56-.43-4.58,1.44-4.58,4.31q0,12.06,0,24.12a2.74,2.74,0,0,0,.06.91C98.94,84.69,100,87.45,101,90.4Zm16.6-13.85V49.78c0-.46,0-.92,0-1.38A3.91,3.91,0,0,0,110,47.3a6.83,6.83,0,0,0-.32,2.26q0,13,0,26.08V76.9A10.5,10.5,0,0,1,117.63,76.55Z"/><path class="cls-1" d="M109.88,137.77l-9.47,3.45q-8.59,3.14-17.2,6.27a4.69,4.69,0,0,1-1.22.33,1.78,1.78,0,0,1-2-1.33,1.82,1.82,0,0,1,.9-2.27,7.91,7.91,0,0,1,1.27-.53c8.59-3.13,17.19-6.21,25.76-9.38,4.19-1.56,6,1.39,6.45,4.55a1.69,1.69,0,0,1-1.44,1.94,1.83,1.83,0,0,1-2.21-1.05C110.38,139.15,110.17,138.49,109.88,137.77Z"/></g></svg>