<svg xmlns="http://www.w3.org/2000/svg" viewBox="0 0 200 200"><defs><style>.cls-1{fill:#036095;}</style></defs><title>icono</title><g id="Capa_2" data-name="Capa 2"><path class="cls-1" d="M180.53,200H19.47A19.49,19.49,0,0,1,0,180.53V19.47A19.49,19.49,0,0,1,19.47,0H180.53A19.49,19.49,0,0,1,200,19.47V180.53A19.49,19.49,0,0,1,180.53,200ZM19.47,5.41A14.07,14.07,0,0,0,5.41,19.47V180.53a14.07,14.07,0,0,0,14.06,14.06H180.53a14.07,14.07,0,0,0,14.06-14.06V19.47A14.07,14.07,0,0,0,180.53,5.41Z"/><path class="cls-1" d="M37.3,69.63c.79-2.47,2.2-4.35,4.88-5a9,9,0,0,1,1.94-.18H147a6.3,6.3,0,0,1,6.3,4.15c2.93,7,5.86,14,8.71,21a9.4,9.4,0,0,1,.67,3.44c.06,7.67,0,15.35,0,23,0,4.34-2.58,6.89-7,6.91h-9.55a1,1,0,0,0-.26.06c-2.06,8-7,12.54-15.52,12.38-6.6-.13-11.11-4.43-13.59-12.4H83.1A14.62,14.62,0,0,1,77,132.87a14.31,14.31,0,0,1-9.11,2.63A14.79,14.79,0,0,1,54.12,123H49.3c-1.35,0-2.7-.07-4,0-3.94.25-6.72-1.23-8-5.14Zm79.46,3.14h33.7c-.33-.82-.65-1.48-.88-2.17a2.71,2.71,0,0,0-3-2q-51.12,0-102.23,0c-2.22,0-2.91.7-2.91,2.94v26.2H87.53V72.91h25V97.82h45.9V93.68h-41.7Zm-8.53,46V77.07H91.76V118.8Zm-25,0H87.4V102.17H41.64c-.07.14-.14.21-.14.28,0,4.73,0,9.46,0,14.19a2,2,0,0,0,2.19,2.17c3.46,0,6.93,0,10,0A72.23,72.23,0,0,1,57,112.23a12.44,12.44,0,0,1,5.6-4.59,14.86,14.86,0,0,1,7-1.31C76.2,106.65,80.82,110.85,83.18,118.76Zm33.71,0a14.66,14.66,0,0,1,5-9,14.38,14.38,0,0,1,9.79-3.46c6.9.1,11.54,4.16,14.19,12.51,3.23,0,6.49,0,9.75,0,2.13,0,2.86-.74,2.86-2.88,0-4.2,0-8.4,0-12.6V102.2H112.61v16.58ZM68.61,110.5a10.43,10.43,0,1,0,10.48,10.37A10.5,10.5,0,0,0,68.61,110.5Zm62.67,0a10.43,10.43,0,1,0,10.51,10.35A10.5,10.5,0,0,0,131.28,110.5Zm6.42-21h19.57a1.29,1.29,0,0,0,0-.43c-1.57-3.8-3.14-7.61-4.78-11.38a1.59,1.59,0,0,0-1.22-.62c-4.2,0-8.4,0-12.6,0-.31,0-.62.06-.94.09Zm-4.34-12.37H121V89.47h12.38Z"/><path class="cls-1" d="M83.22,72.93V93.65H45.74V72.93ZM79,89.48V77.08H66.64v12.4Zm-16.75,0V77.08H49.9v12.4Z"/><path class="cls-1" d="M68.67,127.16a6.25,6.25,0,1,1,6.24-6.25A6.33,6.33,0,0,1,68.67,127.16ZM68.6,123a2.06,2.06,0,0,0,2.08-2,2,2,0,1,0-4.07-.21A2.08,2.08,0,0,0,68.6,123Z"/><path class="cls-1" d="M131.29,127.17a6.34,6.34,0,0,1-6.2-6.29,6.26,6.26,0,1,1,12.51.11A6.36,6.36,0,0,1,131.29,127.17Zm.05-8.32a2,2,0,0,0-2,2,2.07,2.07,0,0,0,2,2.13,2.09,2.09,0,0,0,2-2A2,2,0,0,0,131.34,118.85Z"/></g></svg>