<svg xmlns="http://www.w3.org/2000/svg" viewBox="0 0 200 200"><defs><style>.cls-1{fill:#fff;}</style></defs><title>icono</title><g id="Capa_2" data-name="Capa 2"><path class="cls-1" d="M180.53,200H19.47A19.49,19.49,0,0,1,0,180.53V19.47A19.49,19.49,0,0,1,19.47,0H180.53A19.49,19.49,0,0,1,200,19.47V180.53A19.49,19.49,0,0,1,180.53,200ZM19.47,5.4A14.08,14.08,0,0,0,5.41,19.47V180.53A14.08,14.08,0,0,0,19.47,194.6H180.53a14.08,14.08,0,0,0,14.06-14.07V19.47A14.08,14.08,0,0,0,180.53,5.4Z"/><path class="cls-1" d="M96.08,167c-2.58-.35-5.19-.57-7.75-1.06q-31.83-6.12-47.47-34.53A62.07,62.07,0,0,1,33.1,97.19c1.55-25.15,13.48-44,35.46-56.31a62.46,62.46,0,0,1,34.23-7.81c18.91.94,34.78,8.5,47.4,22.62A65.92,65.92,0,0,1,166.7,93.24c.1,1,.22,1.89.33,2.83v7.86a7.28,7.28,0,0,0-.22,1.13,63.19,63.19,0,0,1-7.65,26.39c-10.43,18.88-26.26,30.44-47.48,34.51-2.55.49-5.16.71-7.74,1.06Zm3.91-4.46a62.56,62.56,0,1,0-62.54-62.5A62.71,62.71,0,0,0,100,162.56Z"/><path class="cls-1" d="M109.9,119.62c.35-8.18.59-14.06.88-20a1.75,1.75,0,0,0-.91-1.79,11.72,11.72,0,0,1-5.17-8.68c-.78-5.78.64-11.2,2.7-16.45A10.15,10.15,0,0,1,126,72.53a34.26,34.26,0,0,1,3,13.69c-.05,4.91-1.31,9.22-5.8,12a1.6,1.6,0,0,0-.45,1.21c.29,7.1.61,14.21.92,21.31.21,4.7.49,9.41.61,14.11a7.25,7.25,0,0,1-6.31,7.49,7.48,7.48,0,0,1-8.28-4.71,11.48,11.48,0,0,1-.44-4.1C109.46,128.12,109.75,122.72,109.9,119.62Zm4.61-3.46h0c-.28,6.1-.58,12.19-.84,18.29-.09,2.17,1,3.42,3,3.46s3.2-1.27,3.15-3.47c0-.44,0-.87-.07-1.31l-1.62-35.54A2.5,2.5,0,0,1,119.7,95a11.61,11.61,0,0,0,2-1.2c2.4-1.84,2.74-4.52,2.85-7.27.16-4.18-1.12-8.09-2.51-11.94a5.7,5.7,0,0,0-10.69.25,56.73,56.73,0,0,0-2.28,9.62c-.51,4.47.11,8.71,5.09,10.75a2.23,2.23,0,0,1,1.19,2.43Q114.94,106.89,114.51,116.16Z"/><path class="cls-1" d="M85.35,115.1c-.31-6.18-.61-12.37-1-18.55a3.77,3.77,0,0,1,1.19-3.17c1.63-1.57,3.25-3.16,4.79-4.82a2.8,2.8,0,0,0,.69-1.69c0-5.84,0-11.69.06-17.53a3.64,3.64,0,0,1,.78-2.23,2.09,2.09,0,0,1,3.5,1,5.15,5.15,0,0,1,.14,1.42c0,6.11,0,12.21,0,18.32A4,4,0,0,1,94.28,91c-1.61,1.53-3.19,3.1-4.71,4.72a2.26,2.26,0,0,0-.6,1.46c.47,10.24,1,20.47,1.48,30.71A54.58,54.58,0,0,1,90.6,136a7.25,7.25,0,0,1-7.78,6.4,7.45,7.45,0,0,1-7-7.12c-.09-2.17.11-4.36.22-6.54.51-10.41,1.05-20.82,1.52-31.23a3,3,0,0,0-.73-1.91c-1.53-1.67-3.25-3.17-4.76-4.87a4.08,4.08,0,0,1-1-2.41c-.08-6.37,0-12.73,0-19.1,0-1,.21-2,1.23-2.39a2.59,2.59,0,0,1,2.15.12,3.55,3.55,0,0,1,1,2.34c.09,5.8.06,11.6,0,17.4a2.57,2.57,0,0,0,.85,2c1.62,1.53,3.15,3.15,4.75,4.7a3.57,3.57,0,0,1,1.12,2.93q-1,18.87-1.94,37.76c-.1,2,.76,3.28,2.4,3.67a2.86,2.86,0,0,0,3.35-1.6,6,6,0,0,0,.33-2.42c-.28-6.23-.61-12.46-.92-18.69Z"/><path class="cls-1" d="M140.19,99.26a39.32,39.32,0,0,0-8.38-23.8c-.38-.49-.77-1-1.09-1.47a2.23,2.23,0,0,1,.39-3.06,2.19,2.19,0,0,1,3.15.4,33.45,33.45,0,0,1,2.61,3.44q14.46,22.64,2.33,46.64a41,41,0,0,1-7.38,9.94,2.31,2.31,0,0,1-3.37.31,2.18,2.18,0,0,1,.06-3.26,44,44,0,0,0,7.71-11A41,41,0,0,0,140.19,99.26Z"/><path class="cls-1" d="M55.35,99.32A44.35,44.35,0,0,1,63.71,74a2.23,2.23,0,1,1,3.65,2.51,39.69,39.69,0,0,0-5.17,9.94c-4.85,14.88-2.32,28.35,7.85,40.31.46.54.95,1,1.39,1.57a2.26,2.26,0,0,1,0,3.28,2.14,2.14,0,0,1-3.25-.27A68.42,68.42,0,0,1,63.06,125,44.38,44.38,0,0,1,55.35,99.32Z"/><path class="cls-1" d="M100.18,55.07c3.35.49,6.71.92,10,1.47a2.16,2.16,0,0,1,2,2.61,2.24,2.24,0,0,1-2.89,1.71,41.15,41.15,0,0,0-20,.41c-1.13.31-2.23.73-3.36,1A2.17,2.17,0,0,1,83,61a2.19,2.19,0,0,1,1.58-2.85A52.49,52.49,0,0,1,100.18,55.07Z"/><path class="cls-1" d="M77.69,77.62c0-2.79,0-5.58,0-8.37,0-1.72.81-2.7,2.16-2.74s2.29,1,2.3,2.76c0,5.62,0,11.24,0,16.87a2.37,2.37,0,0,1-1.61,2.56,2.2,2.2,0,0,1-2.84-2.32c0-2.92,0-5.84,0-8.76Z"/><path class="cls-1" d="M88.81,77.73c0,2.92,0,5.84,0,8.76A2.07,2.07,0,0,1,87,88.73a2,2,0,0,1-2.42-1.3,4.63,4.63,0,0,1-.24-1.67c0-2.87,0-5.75,0-8.63V69.81a9.09,9.09,0,0,1,0-1.17,2.29,2.29,0,0,1,2.25-2.13,2.19,2.19,0,0,1,2.16,2.33C88.84,71.8,88.81,74.76,88.81,77.73Z"/><path class="cls-1" d="M100,140.24c1.52-.09,3-.19,4.57-.25s2.5.64,2.65,1.91a2.18,2.18,0,0,1-2.27,2.48q-5,.17-9.92,0a2.14,2.14,0,0,1-2.2-2.4,2.22,2.22,0,0,1,2.6-2C97,140.05,98.47,140.15,100,140.24Z"/></g></svg>