<svg xmlns="http://www.w3.org/2000/svg" viewBox="0 0 200 200"><defs><style>.cls-1{fill:#036095;}.cls-2{fill:#fff;}</style></defs><title>logo-</title><g id="Capa_2" data-name="Capa 2"><circle class="cls-1" cx="100" cy="100" r="100"/><path class="cls-2" d="M87.59,57.27h24.82c.71.06,1.42.17,2.13.18,10.13.26,20.25.47,30.32,1.75,7.27.93,12.59,5.43,14,12.5.89,4.62,1.25,9.34,1.76,14,.28,2.52.37,5.06.54,7.59v13.36c-.09,1-.22,2-.27,2.95a108.87,108.87,0,0,1-1.95,18.45c-1.45,6.71-5.55,11-12.29,12.36a76,76,0,0,1-10.87,1.25c-6.54.38-13.1.53-19.65.8-1.23,0-2.45.16-3.68.24H87.59a10,10,0,0,0-1.06-.15c-4-.12-8-.12-12-.38-6.93-.47-13.88-.81-20.75-1.74-6.19-.83-10.35-4.66-12.18-10.67-1.54-5-1.8-10.29-2.17-15.52q-.27-3.8-.52-7.59V93.32c.09-1,.22-2,.27-2.95a117.82,117.82,0,0,1,1.93-18.45A15.21,15.21,0,0,1,53.39,59.54a94,94,0,0,1,11-1.23c6.82-.39,13.66-.56,20.48-.83C85.77,57.44,86.68,57.34,87.59,57.27Zm.1,24.3v37l32-18.43Z"/></g></svg>