<svg xmlns="http://www.w3.org/2000/svg" viewBox="0 0 200 200"><defs><style>.cls-1{fill:#036095;}.cls-2{fill:#fff;}</style></defs><title>logo_instagram</title><g id="Capa_2" data-name="Capa 2"><circle class="cls-1" cx="100" cy="100" r="100"/><path class="cls-2" d="M161.45,70.42v59.69c-.2,1.25-.33,2.51-.61,3.74-3.12,13.85-11.5,22.73-25.19,26.53a55.63,55.63,0,0,1-5.48,1H70.49c-.39-.07-.77-.16-1.16-.21a30.27,30.27,0,0,1-9.65-2.54c-13.13-6.21-20.2-16.6-20.41-31.14-.25-18.14-.07-36.29-.05-54.43a32,32,0,0,1,4.29-16.55C50.24,45.09,60.34,39.24,73.6,39.17c17.82-.09,35.65,0,53.48,0a31.6,31.6,0,0,1,6.87.62c13.84,3.05,22.69,11.47,26.49,25.13C160.94,66.72,161.12,68.59,161.45,70.42Zm-10.84,30q0-13.31,0-26.62a24.64,24.64,0,0,0-1.23-8.21C145.93,55.88,137.59,50,127.09,50c-17.82,0-35.64-.05-53.46,0a26.11,26.11,0,0,0-8,1.23C55.9,54.56,50.07,63,50.05,73.59c0,17.78,0,35.57.05,53.35a26.15,26.15,0,0,0,1.22,8c3.26,9.72,11.7,15.61,22.19,15.63q26.85.08,53.7,0a22.6,22.6,0,0,0,19.13-9.65,22.92,22.92,0,0,0,4.27-14Q150.59,113.64,150.61,100.39Z"/><path class="cls-2" d="M131.83,100.32a31.5,31.5,0,1,1-31.48-31.55A31.63,31.63,0,0,1,131.83,100.32ZM100.37,79.63A20.64,20.64,0,1,0,121,100.31,20.65,20.65,0,0,0,100.37,79.63Z"/><path class="cls-2" d="M133.15,59.61a7.93,7.93,0,1,1-8,7.86A8,8,0,0,1,133.15,59.61Z"/></g></svg>